# xmcd CD database file generated by Grip 3.1.4
# 
# Track frame offsets:
#       182
#       12897
#       26807
#       38365
#       50130
#       62595
#       72727
#       85515
#       97940
#       110832
#       125327
#       137750
#       152017
#       164862
#       176037
#       188300
#       198490
#       209520
#       220467
#       232542
# 
# Disc length: 3237 seconds
# 
# Revision: 3
# Processed by: cddbd v1.5.1PL0 Copyright (c) Steve Scherf et al.
# Submitted via: Grip 3.1.4
# 
DISCID=180ca314
DTITLE=Jimmy Reed - The Very Best Of Jimmy Reed [CD1]
DYEAR=1995
DGENRE=Blues
TTITLE0=I Found My Baby
TTITLE1=You Don't Have to Go
TTITLE2=I'm Gonna Ruin You
TTITLE3=She Don't Want Me No More
TTITLE4=I Don't Go For That
TTITLE5=Ain't That Lovin' You Baby
TTITLE6=Can't Stand To See You Go
TTITLE7=I Love You Baby
TTITLE8=You Got Me Dizzy
TTITLE9=Honey, Where You Going?
TTITLE10=Do The Thing
TTITLE11=Little Rain
TTITLE12=The Sun Is Shining
TTITLE13=Odds And Ends
TTITLE14=Honest I Do
TTITLE15=My Bitter Seed
TTITLE16=The Moon Is Rising
TTITLE17=Down In Virginia
TTITLE18=I'm Gonna Get My Baby
TTITLE19=I Wanna Be Loved
EXTD=
EXTT0=
EXTT1=
EXTT2=
EXTT3=
EXTT4=
EXTT5=
EXTT6=
EXTT7=
EXTT8=
EXTT9=
EXTT10=
EXTT11=
EXTT12=
EXTT13=
EXTT14=
EXTT15=
EXTT16=
EXTT17=
EXTT18=
EXTT19=
PLAYORDER=
